<svg xmlns="http://www.w3.org/2000/svg" xmlns:xlink="http://www.w3.org/1999/xlink" viewBox="0 0 1011.19 992.53"><defs><style>.cls-1{fill:none;}.cls-2{clip-path:url(#clip-path);}.cls-3{stroke:#000;stroke-miterlimit:10;}.cls-4{clip-path:url(#clip-path-2);}.cls-5{clip-path:url(#clip-path-3);}.cls-6{clip-path:url(#clip-path-4);}.cls-7{font-size:200px;font-family:FuturaPT-Heavy, Futura PT;font-weight:800;}.cls-8{letter-spacing:-0.13em;}.cls-9{letter-spacing:-0.1em;}.cls-10{letter-spacing:-0.17em;}.cls-11{letter-spacing:0.03em;}.cls-12{letter-spacing:-0.05em;}</style><clipPath id="clip-path"><rect class="cls-1" x="322.14" width="169.05" height="272.12"/></clipPath><clipPath id="clip-path-2"><rect class="cls-1" x="519.58" width="169.05" height="272.12"/></clipPath><clipPath id="clip-path-3"><rect class="cls-1" x="149.09" y="203.04" width="120.28" height="229.46"/></clipPath><clipPath id="clip-path-4"><rect class="cls-1" x="741.4" y="203.04" width="120.28" height="229.46"/></clipPath></defs><g id="レイヤー_2" data-name="レイヤー 2"><g id="レイヤー_1-2" data-name="レイヤー 1"><path d="M505.38,349.54c99.16,0,180.55,76,189.09,173h63.47c-8.69-131.93-118.43-236.25-252.56-236.25S261.52,390.58,252.83,522.51h63.46C324.84,425.57,406.22,349.54,505.38,349.54Z"/><path d="M505.38,729.23c-99.16,0-180.54-76-189.09-173H252.83c8.69,131.93,118.43,236.25,252.55,236.25S749.25,688.19,757.94,556.26H694.47C685.93,653.2,604.54,729.23,505.38,729.23Z"/><rect x="484.29" y="585.79" width="42.19" height="158.63"/><path d="M505.38,476.1a63.29,63.29,0,0,0-61,46.41h122A63.3,63.3,0,0,0,505.38,476.1Z"/><path d="M505.38,602.67a63.3,63.3,0,0,0,61-46.41h-122A63.29,63.29,0,0,0,505.38,602.67Z"/><path d="M566.37,522.51h-122a63.06,63.06,0,0,0,0,33.75h122a63.32,63.32,0,0,0,0-33.75Z"/><g id="_リピートミラー_" data-name="&lt;リピートミラー&gt;"><g class="cls-2"><path class="cls-3" d="M414.7.63c52.83,5.07,109,163.81,52.31,237.09-2.71,3.5-28.55,36-62.36,33.79-43.15-2.8-73.4-60.45-80.24-103C311.42,87.67,372.69-3.4,414.7.63Z"/></g></g><g id="_リピートミラー_2" data-name="&lt;リピートミラー&gt;"><g class="cls-4"><path class="cls-3" d="M596.07.63c-52.83,5.07-109,163.81-52.31,237.09,2.7,3.5,28.55,36,62.35,33.79,43.16-2.8,73.41-60.45,80.24-103C699.34,87.67,638.08-3.4,596.07.63Z"/></g></g><g id="_リピートミラー_3" data-name="&lt;リピートミラー&gt;"><g class="cls-5"><path class="cls-3" d="M195.32,431.51c-16.66-1.19-25-1.79-29.23-4.59-14.6-9.67-15.61-33.36-16.38-58.75a246.26,246.26,0,0,1,5.94-62.24c5.37-23.69,12.88-55.09,37.88-81.65,10.74-11.43,21.83-23.21,34.36-20.28,17.14,4,25.88,33,32.71,55.63,10.94,36.27,7.95,63.84,7.75,96.82-.26,42.85-7.46,55.42-20.45,65a59.5,59.5,0,0,1-16.49,7.85C228.64,430.18,218.46,433.17,195.32,431.51Z"/></g></g><g id="_リピートミラー_4" data-name="&lt;リピートミラー&gt;"><g class="cls-6"><path class="cls-3" d="M815.44,431.51c16.66-1.19,25-1.79,29.23-4.59,14.61-9.67,15.62-33.36,16.39-58.75a246.74,246.74,0,0,0-5.94-62.24c-5.37-23.69-12.88-55.09-37.88-81.65-10.75-11.43-21.84-23.21-34.36-20.28-17.15,4-25.88,33-32.71,55.63-10.94,36.27-8,63.84-7.76,96.82.26,42.85,7.46,55.42,20.45,65a59.73,59.73,0,0,0,16.5,7.85C782.13,430.18,792.31,433.17,815.44,431.51Z"/></g></g><text class="cls-7" transform="translate(0 940.53)"><tspan class="cls-8">N</tspan><tspan class="cls-9" x="134.2" y="0">E</tspan><tspan class="cls-10" x="214.6" y="0">K</tspan><tspan class="cls-11" x="313.6" y="0">O</tspan><tspan class="cls-12" x="480.6" y="0">HA</tspan><tspan class="cls-8" x="739.99" y="0">N</tspan><tspan x="874.19" y="0">D</tspan></text></g></g></svg>